<svg width="18" height="12" viewBox="0 0 18 12" fill="none" xmlns="http://www.w3.org/2000/svg">
<path fill-rule="evenodd" clip-rule="evenodd" d="M1.66675 7.33335H2.66675C3.21903 7.33335 3.66675 7.78107 3.66675 8.33335V10.3334C3.66675 10.8856 3.21903 11.3334 2.66675 11.3334H1.66675C1.11446 11.3334 0.666748 10.8856 0.666748 10.3334V8.33335C0.666748 7.78107 1.11446 7.33335 1.66675 7.33335ZM6.33341 5.33335H7.33341C7.8857 5.33335 8.33341 5.78107 8.33341 6.33335V10.3334C8.33341 10.8856 7.8857 11.3334 7.33341 11.3334H6.33341C5.78113 11.3334 5.33341 10.8856 5.33341 10.3334V6.33335C5.33341 5.78107 5.78113 5.33335 6.33341 5.33335ZM11.0001 3.00002H12.0001C12.5524 3.00002 13.0001 3.44774 13.0001 4.00002V10.3334C13.0001 10.8856 12.5524 11.3334 12.0001 11.3334H11.0001C10.4478 11.3334 10.0001 10.8856 10.0001 10.3334V4.00002C10.0001 3.44774 10.4478 3.00002 11.0001 3.00002ZM15.6667 0.666687H16.6667C17.219 0.666687 17.6667 1.1144 17.6667 1.66669V10.3334C17.6667 10.8856 17.219 11.3334 16.6667 11.3334H15.6667C15.1145 11.3334 14.6667 10.8856 14.6667 10.3334V1.66669C14.6667 1.1144 15.1145 0.666687 15.6667 0.666687Z" fill="#060606"/>
</svg>
